:FULLY-SPECIFIED
:FORCE-ALL-JOINTS-BE-3DOF
:DEGREES
2956
root -6.02541 13.1201 -28.7236 1243.34 -66.8724 -160.259
lfemur -67.3823 41.8791 -6.03152
ltibia 74.4228 -0 0
lfoot -4.98432 -3.0825 0.0181651
ltoes -38.2953 0 0
rfemur -35.3264 -17.8901 23.2788
rtibia 91.0475 -0 0
rfoot -40.0087 -31.5894 -0.0292555
rtoes -11.5458 0 0
lowerback 16.4481 5.27999 1.30711
upperback -4.44151 7.58817 1.47335
thorax -14.2848 3.4576 -1.23407
lowerneck -3.0137 9.63806 1.53342
upperneck 8.09324 12.6596 1.43597
head 3.11967 6.35756 0.663408
lclavicle -7.64544e-14 -7.55382e-15 0
lhumerus 5.68357 14.9658 82.4124
lradius 90.5961 0 0
lwrist -18.196 0 0
lhand -38.8874 387.925 0
lfingers 7.12502 0 0
lthumb -11.8951 -662.433 0
rclavicle -7.64544e-14 -7.55382e-15 0
rhumerus -57.5155 50.8409 -110.015
rradius 112.645 0 0
rwrist -80.6079 0 0
rhand 6.18205 -385.974 0
rfingers 7.12502 0 0
rthumb 31.4968 306.72 0
2957
root -6.01125 13.1197 -28.7231 1243.44 -67.0645 -160.25
lfemur -67.1382 40.8919 -5.8012
ltibia 73.9124 -0 0
lfoot -4.75911 -2.9809 0.0167672
ltoes -37.9936 0 0
rfemur -35.4405 -17.8428 23.3125
rtibia 91.0969 -0 0
rfoot -39.91 -31.7691 -0.0309585
rtoes -11.3366 0 0
lowerback 16.4794 5.21258 1.27436
upperback -4.41958 7.49056 1.47694
thorax -14.2838 3.4156 -1.18666
lowerneck -3.03087 9.65324 1.52379
upperneck 7.92965 12.6929 1.31392
head 3.07488 6.37059 0.623052
lclavicle 3.29734e-14 -2.94201e-14 0
lhumerus 5.6701 15.1109 82.1124
lradius 90.5037 0 0
lwrist -17.9745 0 0
lhand -38.8408 388.29 0
lfingers 7.12502 0 0
lthumb -11.8501 -662.065 0
rclavicle 3.29734e-14 -2.94201e-14 0
rhumerus -56.7641 50.7339 -109.23
rradius 112.458 0 0
rwrist -79.7502 0 0
rhand 5.75777 -386.038 0
rfingers 7.12502 0 0
rthumb 31.0925 306.578 0
2958
root -5.99713 13.1227 -28.7251 1243.62 -67.1371 -160.424
lfemur -66.9027 39.9041 -5.57973
ltibia 73.4021 -0 0
lfoot -4.53391 -2.87932 0.0149701
ltoes -37.6918 0 0
rfemur -35.5545 -17.7955 23.3462
rtibia 91.1463 -0 0
rfoot -39.8113 -31.9488 -0.032352
rtoes -11.1273 0 0
lowerback 16.578 5.1983 1.15298
upperback -4.36371 7.44897 1.50703
thorax -14.299 3.40775 -1.08187
lowerneck -3.06552 9.69301 1.54132
upperneck 7.81088 12.7632 1.10719
head 3.05721 6.39959 0.556967
lclavicle 5.47714e-14 -3.57812e-15 0
lhumerus 5.66677 15.2356 81.7591
lradius 90.4406 0 0
lwrist -17.7089 0 0
lhand -38.9457 388.974 0
lfingers 7.12502 0 0
lthumb -11.9513 -661.387 0
rclavicle 5.47714e-14 -3.57812e-15 0
rhumerus -55.8306 50.5911 -108.231
rradius 112.171 0 0
rwrist -78.8687 0 0
rhand 5.37176 -385.939 0
rfingers 7.12502 0 0
rthumb 30.7245 306.608 0
2959
root -5.9724 13.12 -28.7311 1243.77 -67.3915 -160.476
lfemur -66.6755 38.9156 -5.36658
ltibia 72.8918 -0 0
lfoot -4.30872 -2.77774 0.0127738
ltoes -37.3901 0 0
rfemur -35.6685 -17.7481 23.3798
rtibia 91.1957 -0 0
rfoot -39.7125 -32.1285 -0.0334358
rtoes -10.9181 0 0
lowerback 16.6856 5.14626 1.02155
upperback -4.32295 7.3504 1.50064
thorax -14.3333 3.37199 -0.997305
lowerneck -3.0728 9.69113 1.47583
upperneck 7.55018 12.7739 1.03225
head 2.96999 6.40224 0.534409
lclavicle -5.34234e-15 5.96354e-15 0
lhumerus 5.66122 15.3603 81.4177
lradius 90.3392 0 0
lwrist -17.2829 0 0
lhand -38.9313 389.215 0
lfingers 7.12502 0 0
lthumb -11.9374 -661.145 0
rclavicle -5.34234e-15 5.96354e-15 0
rhumerus -54.5146 50.302 -106.931
rradius 111.787 0 0
rwrist -78.0217 0 0
rhand 5.0968 -386.015 0
rfingers 7.12502 0 0
rthumb 30.4623 306.482 0
2960
root -5.94928 13.1271 -28.7362 1244.06 -67.5794 -160.708
lfemur -66.4561 37.9264 -5.16131
ltibia 72.3814 -0 0
lfoot -4.08356 -2.67618 0.0101785
ltoes -37.0884 0 0
rfemur -35.7824 -17.7007 23.4133
rtibia 91.2452 -0 0
rfoot -39.6138 -32.3082 -0.0342099
rtoes -10.7089 0 0
lowerback 16.7665 5.14196 0.909519
upperback -4.26015 7.31648 1.47831
thorax -14.3196 3.36498 -0.955387
lowerneck -3.05061 9.64217 1.42565
upperneck 7.26565 12.7275 0.86386
head 2.87741 6.37404 0.476391
lclavicle -2.83392e-14 -1.31198e-14 0
lhumerus 5.73528 15.4678 81.136
lradius 90.223 0 0
lwrist -16.9672 0 0
lhand -38.7918 389.39 0
lfingers 7.12502 0 0
lthumb -11.8028 -660.962 0
rclavicle -2.83392e-14 -1.31198e-14 0
rhumerus -53.0727 49.9649 -105.435
rradius 111.342 0 0
rwrist -77.4829 0 0
rhand 1.68622 -383.294 0
rfingers 7.12502 0 0
rthumb 27.2045 308.648 0
